<svg xmlns="http://www.w3.org/2000/svg" version="1.1" xmlns:xlink="http://www.w3.org/1999/xlink" width="100" height="125"><svg xmlns="http://www.w3.org/2000/svg" xmlns:xlink="http://www.w3.org/1999/xlink" version="1.1" x="0px" y="0px" viewBox="0 0 100 125" style="enable-background:new 0 0 100 100;" xml:space="preserve"><g><path d="M94.742,66.195C93.561,55.342,86.951,25,50,25v-7l20-8L50,2V0h-5v20v5.195C12.444,27.803,6.385,55.847,5.258,66.193   C2.126,67.883,0,71.193,0,75c0,3.701,2.011,6.931,5,8.66c0,1.726,0,3.934,0,6.34c0,5.522,4.473,10,10,10h70c5.518,0,10-4.478,10-10   c0-2.407,0-4.616,0-6.343c2.986-1.729,5-4.958,5-8.657C100,71.194,97.871,67.886,94.742,66.195z M50,7.385L56.533,10L50,12.615   V7.385z M45,30.222V35h5v-5c31.27,0,38.096,24.233,39.58,35H10.391C11.756,54.828,17.847,32.65,45,30.222z M48.008,70   C37.432,74.539,28.32,81.221,22.646,85.93c-1.455-6.264-2.109-12.038-2.402-15.93H48.008z M5,75c0-2.756,2.246-5,5-5h5.224   c0.188,2.607,0.533,6.072,1.167,10H10C7.246,80,5,77.756,5,75z M90,90c0,2.757-2.246,5-5,5H20h-5c-2.754,0-5-2.243-5-5v-5h7.318   c0.677,3.219,1.551,6.608,2.682,10c0,0,4.688-4.686,12.03-10H90V90z M90,80H39.562C48.356,74.686,59.178,70,70,70h20   c2.754,0,5,2.244,5,5S92.754,80,90,80z M45,42.5c0,1.382-1.123,2.5-2.5,2.5c-1.387,0-2.5-1.118-2.5-2.5s1.113-2.5,2.5-2.5   C43.877,40,45,41.118,45,42.5z M60,42.5c0,1.382-1.123,2.5-2.5,2.5c-1.387,0-2.5-1.118-2.5-2.5s1.113-2.5,2.5-2.5   C58.877,40,60,41.118,60,42.5z M52.5,47.5c0,1.382-1.123,2.5-2.5,2.5c-1.387,0-2.5-1.118-2.5-2.5S48.613,45,50,45   C51.377,45,52.5,46.118,52.5,47.5z"></path></g><text x="0" y="115" fill="#000000" font-size="5px" font-weight="bold" font-family="'Helvetica Neue', Helvetica, Arial-Unicode, Arial, Sans-serif">Created by b farias</text><text x="0" y="120" fill="#000000" font-size="5px" font-weight="bold" font-family="'Helvetica Neue', Helvetica, Arial-Unicode, Arial, Sans-serif">from the Noun Project</text></svg><style>@media (prefers-color-scheme: light) { :root { filter: none; } }
@media (prefers-color-scheme: dark) { :root { filter: none; } }
</style></svg>